<?xml version="1.0" encoding="iso-8859-1"?>
<!-- Generator: Adobe Illustrator 16.0.0, SVG Export Plug-In . SVG Version: 6.00 Build 0)  -->
<!DOCTYPE svg PUBLIC "-//W3C//DTD SVG 1.1//EN" "http://www.w3.org/Graphics/SVG/1.1/DTD/svg11.dtd">
<svg xmlns="http://www.w3.org/2000/svg" xmlns:xlink="http://www.w3.org/1999/xlink" version="1.1" id="Capa_1" x="0px" y="0px" width="512px" height="512px" viewBox="0 0 74.233 74.233" style="enable-background:new 0 0 74.233 74.233;" xml:space="preserve">
<g>
	<path d="M64.478,0l-2.351,16.039c-3.572-0.492-6.349-3.537-6.349-7.242c0-0.733-0.585-1.326-1.325-1.326   c-0.725,0-1.325,0.593-1.325,1.326c0,4.049-3.288,7.342-7.343,7.342c-4.05,0-7.343-3.293-7.343-7.342   c0-0.733-0.588-1.326-1.325-1.326c-0.726,0-1.326,0.593-1.326,1.326c0,4.049-3.291,7.342-7.342,7.342s-7.343-3.293-7.343-7.342   c0-0.733-0.59-1.326-1.326-1.326c-0.728,0-1.325,0.593-1.325,1.326c0,3.705-2.775,6.745-6.349,7.236L9.758,0H2.6l10.854,74.233   h47.328L71.634,0H64.478z M54.66,67.134H19.573l-7.097-48.529c3.109-0.44,5.802-2.221,7.304-4.833   c1.727,2.996,4.974,5.02,8.668,5.02c3.708,0,6.952-2.024,8.668-5.02c1.729,2.996,4.976,5.02,8.668,5.02   c3.707,0,6.954-2.024,8.668-5.02c1.502,2.612,4.194,4.399,7.307,4.833L54.66,67.134z" fill="#FFFFFF"/>
</g>
<g>
</g>
<g>
</g>
<g>
</g>
<g>
</g>
<g>
</g>
<g>
</g>
<g>
</g>
<g>
</g>
<g>
</g>
<g>
</g>
<g>
</g>
<g>
</g>
<g>
</g>
<g>
</g>
<g>
</g>
</svg>
