<?xml version="1.0" encoding="iso-8859-1"?>
<!-- Generator: Adobe Illustrator 17.1.0, SVG Export Plug-In . SVG Version: 6.00 Build 0)  -->
<!DOCTYPE svg PUBLIC "-//W3C//DTD SVG 1.1//EN" "http://www.w3.org/Graphics/SVG/1.1/DTD/svg11.dtd">
<svg xmlns="http://www.w3.org/2000/svg"  version="1.1" id="Capa_1" x="0px" y="0px" viewBox="0 0 343.304 343.304" style="enable-background:new 0 0 343.304 343.304;" xml:space="preserve" width="512px" height="512px">
<g>
	<path d="M281.339,134.202c0.024-0.781,0.036-1.549,0.036-2.306c0-50.235-40.869-91.104-91.104-91.104   c-48.055,0-87.539,37.4-90.875,84.62c-8.771-3.727-18.227-5.661-27.897-5.661C32.074,119.751,0,151.825,0,191.25   c0,17.116,6.143,33.676,17.297,46.63c2.703,3.139,7.439,3.492,10.577,0.79c3.139-2.703,3.493-7.438,0.79-10.577   C19.853,217.859,15,204.775,15,191.25c0-31.153,25.345-56.498,56.499-56.498c11.192,0,22.02,3.279,31.313,9.482   c2.382,1.59,5.461,1.685,7.937,0.244c2.475-1.441,3.914-4.166,3.708-7.022l-0.04-0.552c-0.128-1.752-0.249-3.408-0.249-5.008   c0-41.964,34.14-76.104,76.104-76.104c41.963,0,76.104,34.14,76.104,76.104c0,2.75-0.197,5.733-0.602,9.121   c-0.269,2.248,0.492,4.496,2.07,6.119c1.578,1.623,3.804,2.452,6.059,2.24c1.761-0.161,3.22-0.235,4.593-0.235   c27.465,0,49.809,22.344,49.809,49.809c0,13.304-5.181,25.813-14.588,35.221c-2.929,2.929-2.929,7.678,0,10.606   c1.464,1.465,3.384,2.197,5.303,2.197s3.839-0.732,5.303-2.197c12.241-12.241,18.982-28.516,18.982-45.827   C343.304,164.167,315.761,135.696,281.339,134.202z" fill="#FFFFFF"/>
	<path d="M248.806,208.479c-25.895,0-46.962,21.067-46.962,46.962c0,4.142,3.358,7.5,7.5,7.5s7.5-3.358,7.5-7.5   c0-17.624,14.338-31.962,31.962-31.962c17.625,0,31.963,14.338,31.963,31.962c0,17.625-14.338,31.963-31.963,31.963   c-0.414,0-0.818,0.042-1.214,0.107H64.75c-4.142,0-7.5,3.358-7.5,7.5s3.358,7.5,7.5,7.5h184.056c0.498,0,0.984-0.051,1.456-0.144   c25.223-0.774,45.507-21.519,45.507-46.926C295.769,229.547,274.702,208.479,248.806,208.479z" fill="#FFFFFF"/>
	<path d="M138.283,262.852c25.223-0.774,45.507-21.519,45.507-46.925c0-25.896-21.067-46.963-46.963-46.963   c-25.895,0-46.962,21.067-46.962,46.963c0,4.142,3.358,7.5,7.5,7.5s7.5-3.358,7.5-7.5c0-17.625,14.338-31.963,31.962-31.963   c17.625,0,31.963,14.338,31.963,31.963c0,17.624-14.338,31.962-31.963,31.962c-0.414,0-0.818,0.042-1.214,0.107H41.652   c-4.142,0-7.5,3.358-7.5,7.5s3.358,7.5,7.5,7.5h95.175C137.325,262.996,137.812,262.944,138.283,262.852z" fill="#FFFFFF"/>
</g>
<g>
</g>
<g>
</g>
<g>
</g>
<g>
</g>
<g>
</g>
<g>
</g>
<g>
</g>
<g>
</g>
<g>
</g>
<g>
</g>
<g>
</g>
<g>
</g>
<g>
</g>
<g>
</g>
<g>
</g>
</svg>
