<svg xmlns="http://www.w3.org/2000/svg" width="64" height="64" viewBox="0 0 64 64" fill="#fff"><path d="M32 64c17.673 0 32-14.327 32-32S49.673 0 32 0 0 14.327 0 32s14.327 32 32 32zm0-58c14.359 0 26 11.641 26 26S46.359 58 32 58 6 46.359 6 32 17.641 6 32 6zm12.006 42.796C41.558 44.724 37.097 42 32 42s-9.558 2.724-12.006 6.796l-5.146-3.087C18.346 39.892 24.718 36 32 36s13.654 3.892 17.152 9.709l-5.145 3.087zm3.934-31.281a2 2 0 0 1-1.455 2.425 18.423 18.423 0 0 0-3.559 1.334 4 4 0 1 1-6.921 2.507c.127-2.966 2.826-4.934 5.099-6.071a23.982 23.982 0 0 1 4.409-1.651 2 2 0 0 1 2.425 1.455zm-31.88 0a2 2 0 0 1 2.425-1.455c.09.023 2.238.566 4.409 1.651 2.274 1.137 4.973 3.105 5.099 6.071a4 4 0 1 1-6.921-2.507 18.374 18.374 0 0 0-3.558-1.334 2 2 0 0 1-1.455-2.425z"/></svg>