<?xml version="1.0" encoding="iso-8859-1"?>
<!-- Generator: Adobe Illustrator 19.0.0, SVG Export Plug-In . SVG Version: 6.00 Build 0)  -->
<svg xmlns="http://www.w3.org/2000/svg" xmlns:xlink="http://www.w3.org/1999/xlink" version="1.1" id="Layer_1" x="0px" y="0px" viewBox="0 0 486.805 486.805" style="enable-background:new 0 0 486.805 486.805;" xml:space="preserve" width="512px" height="512px">
<g>
	<path d="M21.805,220.914l63.523-67.224c22.675,21.395,48.668,38.649,77.483,51.371c34.831,15.377,72.031,23.338,110.559,23.664   c0.856,0.007,1.687-0.017,2.57,0.011c37.916,0,74.641-7.477,109.144-22.221c33.328-14.242,63.064-34.575,88.384-60.435   l10.103-10.318l-9.927-10.488c-25.253-26.681-55.055-47.778-88.578-62.708c-34.771-15.485-71.893-23.552-110.392-23.977   c-0.677-0.005-1.366-0.007-2.043-0.007c-38.163,0-75.084,7.514-109.737,22.333c-28.699,12.272-54.671,29.045-77.42,49.934   L21.805,43.474L0,64.078l64.227,67.969l0.138,0.146L0,200.31L21.805,220.914z M441.319,135.401   c-25.51,23.123-55.162,40.322-87.312,50.918c-7.37-15.798-11.232-33.125-11.232-50.732c0-18.423,4.213-36.472,12.242-52.831   C386.883,94.017,416.181,111.789,441.319,135.401z M272.63,68.584c0.605,0,1.223,0.002,1.771,0.006   c17.528,0.193,34.726,2.168,51.398,5.829c-8.553,19.145-13.024,39.962-13.024,61.168c0,20.16,4.05,40.036,11.821,58.424   c-15.832,3.116-32.108,4.726-48.664,4.726c-0.762,0-1.53-0.003-2.302-0.01c-63.308-0.535-122.135-23.991-167.242-66.379   C151.557,91.119,210.028,68.584,272.63,68.584z" fill="#FFFFFF"/>
	<path d="M422.578,354.757l-0.139-0.146l64.365-68.116L465,265.891l-63.523,67.224c-22.675-21.395-48.668-38.649-77.483-51.371   c-34.831-15.377-72.031-23.338-110.559-23.664c-38.82-0.353-76.433,7.133-111.714,22.21   c-33.328,14.242-63.064,34.575-88.384,60.434L3.235,351.042l9.927,10.488c25.253,26.681,55.055,47.778,88.578,62.708   c34.771,15.485,71.893,23.552,110.392,23.977c0.677,0.005,1.366,0.007,2.042,0.007c38.17,0,75.089-7.514,109.738-22.332   c28.698-12.273,54.67-29.046,77.42-49.935L465,443.331l21.805-20.604L422.578,354.757z M45.485,351.403   c25.509-23.123,55.161-40.321,87.312-50.918c7.37,15.798,11.232,33.125,11.232,50.732c0,18.423-4.213,36.472-12.242,52.831   C99.921,392.788,70.624,375.016,45.485,351.403z M214.176,418.221c-0.606,0-1.224-0.002-1.772-0.006   c-17.528-0.193-34.726-2.169-51.398-5.829c8.553-19.145,13.024-39.962,13.024-61.168c0-20.16-4.05-40.036-11.821-58.424   c15.832-3.116,32.108-4.726,48.664-4.726c0.762,0,1.53,0.003,2.302,0.01c63.308,0.535,122.135,23.991,167.242,66.379   C335.246,395.688,276.773,418.221,214.176,418.221z" fill="#FFFFFF"/>
</g>
<g>
</g>
<g>
</g>
<g>
</g>
<g>
</g>
<g>
</g>
<g>
</g>
<g>
</g>
<g>
</g>
<g>
</g>
<g>
</g>
<g>
</g>
<g>
</g>
<g>
</g>
<g>
</g>
<g>
</g>
</svg>
